<svg id="Layer_2" enable-background="new 0 0 24 24" height="512" viewBox="0 0 24 24" width="512" xmlns="http://www.w3.org/2000/svg"><g><path d="m7.5 21c-.076 0-.153-.018-.224-.053-.169-.085-.276-.258-.276-.447v-8.171c0-.395-.16-.782-.44-1.061l-5.827-5.824c-.473-.472-.733-1.1-.733-1.768v-2.176c0-.827.673-1.5 1.5-1.5h16c.827 0 1.5.673 1.5 1.5v2.176c0 .668-.26 1.296-.733 1.769l-5.827 5.823c-.28.279-.44.666-.44 1.061v4.671c0 .47-.224.918-.6 1.2l-3.6 2.7c-.088.066-.194.1-.3.1zm-6-20c-.276 0-.5.224-.5.5v2.176c0 .401.156.778.44 1.062l5.827 5.823c.466.464.733 1.109.733 1.768v7.171l2.8-2.1c.125-.094.2-.243.2-.4v-4.671c0-.659.267-1.303.733-1.769l5.827-5.823c.284-.283.44-.66.44-1.061v-2.176c0-.276-.224-.5-.5-.5z"/></g><g><path d="m22.5 24h-7c-.827 0-1.5-.673-1.5-1.5v-9c0-.827.673-1.5 1.5-1.5h7c.827 0 1.5.673 1.5 1.5v9c0 .827-.673 1.5-1.5 1.5zm-7-11c-.276 0-.5.224-.5.5v9c0 .276.224.5.5.5h7c.276 0 .5-.224.5-.5v-9c0-.276-.224-.5-.5-.5z"/></g><g><path d="m20.5 17h-3c-.276 0-.5-.224-.5-.5s.224-.5.5-.5h3c.276 0 .5.224.5.5s-.224.5-.5.5z"/></g><g><path d="m20.5 20h-3c-.276 0-.5-.224-.5-.5s.224-.5.5-.5h3c.276 0 .5.224.5.5s-.224.5-.5.5z"/></g></svg>